<?xml version="1.0" encoding="UTF-8"?>
<svg id="_レイヤー_1" data-name="レイヤー_1" xmlns="http://www.w3.org/2000/svg" version="1.1" viewBox="0 0 1044.71 119.34">
  <!-- Generator: Adobe Illustrator 30.0.0, SVG Export Plug-In . SVG Version: 2.1.1 Build 123)  -->
  <defs>
    <style>
      .st0 {
        fill: #231815;
      }
    </style>
  </defs>
  <path class="st0" d="M717.24,18.78l-12.03-2.19v22.42l-1.64,1.64h-24.61l1.64,6.56h23.51c-.26,21.61-7.38,44.22-28.43,53.61l2.71,4.04c24.9-9.5,39.36-30.83,38.84-57.65h24.06c-.51,9.86.68,20.33.05,30.12-.55,8.57-.43,18.95-10.76,19.95l-4.27-.07c-4.02-.21-9.13-.65-9.13-.65-.46.38-.84.91-1.04,1.56-.23.54-.25,1.23.02,2.11.78,2.6,30.22,10.21,35.32-5.13,1.16-3.48,2.95-14.4,2.95-17.83v-36.64h-37.18v-21.87Z"/>
  <path class="st0" d="M522.42,19.47c-1.12-3.39-10.96-1.2-14.06-1.79v86.08h13.24c2.25-2.96-.07-8.17-.17-12.21-.11-4.48-.67-30.18.16-32.44,15.17-.25,27.11,11.08,38.65,18.8l6.97-9.39c-12.44-12.18-28.73-15.79-45.61-17.05l.82-32Z"/>
  <path class="st0" d="M397.35,29.71h-73.82v6.57s59,1.61,59,1.61c-2.75,30.53-21.19,55.45-51.34,62.92-.32,2.01,1.62,4.1,3.59,4.11,2.58.01,14.32-4.22,17.47-5.48,20.89-8.37,34.78-23.23,41.58-44.82,1.63-5.17,4.75-17.68,4.71-22.68,0-1.27-.08-1.43-1.19-2.24Z"/>
  <path class="st0" d="M286.35,65.54c0,2.28-.33,4.55-.97,6.74-.64,2.17-1.42,4.59-1.77,5.54-4.78,12.94-15.79,20.37-28.97,22.99,2.47,7.16,13.9,2.35,19.35.2,13.62-5.38,26.58-19.11,26.58-34.66V19.87h-14.22v45.67Z"/>
  <path class="st0" d="M773.57,59.24h36.64c1.65,18.86-5.13,37.18-25.15,41.57l1.72,4.23c17.56-3.77,34.21-12.47,36.54-32.15.53-4.47-.34-10.09,1.65-13.66h34.45v-6.56h-87.49l1.64,6.56Z"/>
  <path class="st0" d="M579.44,25.34v7.65s66.72-1.09,66.72-1.09c-.42,11.83-6.9,25.21-17.5,30.64-1.27,1.78,3.78,4.38,4.92,5.13,14.59-8.94,26.77-23.71,28.87-41.11-.95-.06-2.04-1.12-2.63-1.22h-80.38Z"/>
  <path class="st0" d="M610.77,44.08c-1.5.24-1.82,1.23-1.8,2.58.11,5.24.48,13.48-.13,19.55-1.65,16.5-9.44,28.63-24.49,35.67.03,3.33,4.87,2.27,7.16,1.67,17.83-4.66,27.97-21.21,30.46-38.43.44-3.03,1.73-17.39,1.06-19.41-.83-2.52-9.63-2.05-12.27-1.64Z"/>
  <path class="st0" d="M877.99,81.64l-3.25,6.6c22.84,3.51,45.82,7.27,67.47,15.67,2.96.18,4.86-8.29,5.8-10.75-22.28-7.19-46.57-11.86-70.01-11.52Z"/>
  <rect class="st0" x="241.51" y="19.87" width="13.12" height="50.31"/>
  <path class="st0" d="M1025.99,59.24h-67.05v8.75h69.99v-5.8c0-1.63-1.32-2.95-2.95-2.95Z"/>
  <path class="st0" d="M464.02,60.38c-8.51-.17-20.98-1.33-29.43-1.18-8.26.15-14.19,1.77-22.48,1.14l1.65,7.66h71.63v-7.66c-7.1-.14-14.26.19-21.37.05Z"/>
  <path class="st0" d="M942.28,33.5c-.81-5.59-49.3-11.12-56.43-9.07l-2.36,7.46c18.57.15,37.67,2.87,54.15,11.94l4.65-10.33Z"/>
  <path class="st0" d="M938.16,61.45c-16.6-6.32-34.92-8.57-52.54-8.25l-2.16,6.58c17.59.88,34.56,4.79,50.77,11.57l3.93-9.9Z"/>
  <path class="st0" d="M778.49,33h59.06v-7.66h-57.42c-2.47,1.77-1.56,5-1.64,7.66Z"/>
  <path class="st0" d="M861.43,14.87l-6.12,1.04,4.46,14.13,7.57-1.03c-.5-3.32-2.14-14.09-5.91-14.15Z"/>
  <polygon class="st0" points="413.75 11.05 405.56 11.13 409.94 25.35 417.59 24.24 413.75 11.05"/>
  <path class="st0" d="M854.06,30.49l-2.83-12.83c-1.65-1.97-5.77-.85-8.22-1.07l3.5,15.08,7.54-1.18Z"/>
  <polygon class="st0" points="392.43 12.22 395.73 26.44 403.37 24.23 399.93 12.37 392.43 12.22"/>
  <path class="st0" d="M123.27,93.03L99.02,11.66c-.36-1.21-1.47-2.04-2.73-2.04h-24.12c3.67,5.15,1.94,7.23-.64,11.94-7.75,14.16-46,73-56.2,81.6-1.97,1.66-4.59,1.97-5.5,3.8h26.25c-4.46-10.25,5.9-19.65,10.93-27.9l48.55-.61c2.4,8.8,9.15,20.78,1.76,28.5h35l-3.64-4.15c-2.49-2.83-4.33-6.17-5.41-9.78ZM91.44,69.52l-.13.25h-37.73l27.33-41.56,10.96,37.1c.41,1.4.26,2.92-.43,4.21Z"/>
  <path class="st0" d="M163.35,14.22c-3.72,24.98-6.78,52.99-12.76,77.65-.76,3.13-1.47,7.29-3.12,10-1.7,2.78-3.91,2.89-5.3,5.09h30.62l-1.2-2.44c-.53-1.08-.7-2.29-.49-3.47,4.4-24.93,7.35-51.75,12.94-76.35.66-2.9,1.34-6.92,2.53-9.5,1.4-3.04,3.2-3.37,4.81-5.58h-30.62l2.6,4.6Z"/>
</svg>